<svg width="394" height="154" viewBox="0 0 394 154" fill="none" xmlns="http://www.w3.org/2000/svg">
<path d="M43.2192 50.4475C68.2304 53.6248 45.2192 91.9773 102.719 89.1132C139.719 75.8666 192.219 89.1132 169.719 102.36C147.219 115.606 136.219 137.087 149.219 147.828C162.219 158.568 236.719 154.272 307.719 137.087C378.719 119.902 372.719 85.175 387.719 59.7559C402.719 34.3368 385.719 33.2628 359.719 11.7818C333.719 -9.69909 288.719 5.33755 246.219 2.47342C203.719 -0.390701 190.219 14.6459 158.719 25.0284C127.219 35.4108 104.719 33.2627 67.7192 25.0284C30.7192 16.794 -49.7807 38.633 43.2192 50.4475Z" fill="white" fill-opacity="0.8"/>
</svg>
