<svg width="634" height="493" viewBox="0 0 634 493" fill="none" xmlns="http://www.w3.org/2000/svg">
<path d="M474.551 349.857C510.647 396.52 717.537 354.902 763.317 349.857C771.827 381.176 793.426 493 864.561 493C953.479 493 975.489 399.043 1015.11 333.462C1093.2 204.192 979.01 218.695 952.599 187.797C896.183 121.797 927.068 79.9666 864.561 85.0113C802.053 90.056 730.742 85.0113 645.345 101.406C559.948 117.802 543.221 96.3618 455.183 56.635C367.145 16.9081 171.138 -41.7396 137.365 44.6538C94.2262 155.006 2.66641 86.9031 0.0252651 187.797C-2.61588 288.69 202.513 255.9 287.91 235.091C373.307 214.281 438.456 303.194 474.551 349.857Z" fill="white" fill-opacity="0.8"/>
</svg>
