<svg width="113" height="154" viewBox="0 0 113 154" fill="none" xmlns="http://www.w3.org/2000/svg">
<path d="M-237.781 50.4475C-212.77 53.6248 -235.781 91.9773 -178.281 89.1132C-141.281 75.8666 -88.7808 89.1132 -111.281 102.36C-133.781 115.606 -144.781 137.087 -131.781 147.828C-118.781 158.568 -44.2808 154.272 26.7192 137.087C97.7192 119.902 91.7192 85.175 106.719 59.7559C121.719 34.3368 104.719 33.2628 78.7192 11.7818C52.7192 -9.69909 7.71921 5.33755 -34.7808 2.47342C-77.2808 -0.390701 -90.7808 14.6459 -122.281 25.0284C-153.781 35.4108 -176.281 33.2627 -213.281 25.0284C-250.281 16.794 -330.781 38.633 -237.781 50.4475Z" fill="white" fill-opacity="0.8"/>
</svg>
