<svg width="930" height="370" viewBox="0 0 930 370" fill="none" xmlns="http://www.w3.org/2000/svg">
<path d="M328.486 244.445C364 277.083 583.725 268.781 632.127 269.577C639.437 290.114 656.298 362.678 731.098 368.869C824.597 376.607 852.656 319.132 897.745 281.126C986.622 206.211 865.794 205.441 839.638 183.611C783.77 136.983 818.433 113.23 752.442 110.978C686.451 108.727 611.731 99.3322 521.077 102.264C430.423 105.195 413.955 90.187 323.46 57.4136C232.965 24.6402 29.9294 -29.4895 -10.1029 22.1806C-61.2372 88.1802 -153.951 37.1637 -162.006 100.709C-170.062 164.254 47.3496 161.38 138.235 155.658C229.119 149.937 292.972 211.808 328.486 244.445Z" fill="white" fill-opacity="0.8"/>
</svg>
