<svg width="592" height="280" viewBox="0 0 592 280" fill="none" xmlns="http://www.w3.org/2000/svg">
<path d="M269.514 198.632C290.014 225.125 407.514 201.496 433.514 198.632C438.348 216.413 450.614 279.901 491.014 279.901C541.514 279.901 554.014 226.557 576.514 189.323C620.865 115.93 556.014 124.165 541.014 106.622C508.974 69.1502 526.514 45.4011 491.014 48.2652C455.514 51.1294 415.014 48.2652 366.514 57.5736C318.014 66.882 308.514 54.7095 258.514 32.1546C208.514 9.59959 97.1951 -23.6977 78.0144 25.3523C53.5144 88.0049 1.51435 49.3393 0.014349 106.622C-1.48565 163.904 115.014 145.287 163.514 133.473C212.014 121.658 249.014 172.139 269.514 198.632Z" fill="white" fill-opacity="0.8"/>
</svg>
