<svg width="288" height="280" viewBox="0 0 288 280" fill="none" xmlns="http://www.w3.org/2000/svg">
<path d="M270.5 198.632C291 225.125 408.5 201.496 434.5 198.632C439.333 216.413 451.6 279.901 492 279.901C542.5 279.901 555 226.557 577.5 189.323C621.851 115.93 557 124.165 542 106.622C509.96 69.1502 527.5 45.4011 492 48.2652C456.5 51.1294 416 48.2652 367.5 57.5736C319 66.882 309.5 54.7095 259.5 32.1546C209.5 9.59959 98.1805 -23.6977 78.9998 25.3523C54.4998 88.0049 2.4997 49.3393 0.999701 106.622C-0.500299 163.904 116 145.287 164.5 133.473C213 121.658 250 172.139 270.5 198.632Z" fill="white" fill-opacity="0.8"/>
</svg>
