<svg width="1440" height="530" viewBox="0 0 1440 530" fill="none" xmlns="http://www.w3.org/2000/svg">
<g filter="url(#filter0_b_184_26)">
<ellipse cx="553.791" cy="187.084" rx="197.318" ry="186.349" transform="rotate(-0.213585 553.791 187.084)" fill="#FFE710"/>
</g>
<path d="M333.711 186.575C147.239 158.66 32.5524 235.884 -0.804144 270.5L-0.804368 378.905L1444.9 395.058C1445.84 304.796 1147.93 204.972 1034.34 230.665C867.649 268.368 917.056 281.9 793.374 289.504C638.047 299.052 566.801 221.467 333.711 186.575Z" fill="#D97A27"/>
<rect x="-14.4043" y="352.356" width="1461.85" height="177.417" transform="rotate(0.192383 -14.4043 352.356)" fill="#2F2F2F"/>
<path d="M1449.7 434.847H10.6958H-2.3042V454.847H1449.7V434.847Z" stroke="#FFEE00" stroke-width="4"/>
<path d="M861.226 249.365L865.394 253.231L870.13 248.972C889.984 249.239 896.401 236.195 895.557 229.848C893.682 228.2 890.877 218.585 889.708 213.984L889.63 206.93C888.988 204.848 893.087 200.962 895.217 199.28L884.01 188.45C878.088 193.752 869.685 190.812 866.224 188.679L864.677 188.699C860.353 193.981 849.652 189.938 846.102 187.632L836.186 200.041C843.951 202.815 841.495 213.821 841.762 214.602C842.028 215.382 840.27 219.586 838.741 221.173C837.517 222.443 836.733 226.077 836.493 227.735L836.578 235.311C835.839 243.055 845.66 248.347 850.663 250.024L861.226 249.365Z" fill="black" stroke="white"/>
<path d="M847.664 214V201.04H850.272C851.136 201.04 851.851 201.157 852.416 201.392C852.982 201.616 853.398 201.984 853.664 202.496C853.942 202.997 854.08 203.659 854.08 204.48C854.08 204.981 854.027 205.44 853.92 205.856C853.814 206.261 853.643 206.608 853.408 206.896C853.174 207.173 852.864 207.376 852.48 207.504L854.32 214H852.576L850.88 207.92H849.472V214H847.664ZM849.472 206.624H850.16C850.672 206.624 851.088 206.56 851.408 206.432C851.728 206.304 851.963 206.085 852.112 205.776C852.262 205.467 852.336 205.035 852.336 204.48C852.336 203.723 852.198 203.179 851.92 202.848C851.643 202.507 851.094 202.336 850.272 202.336H849.472V206.624ZM859.226 214.144C858.352 214.144 857.653 213.973 857.13 213.632C856.608 213.291 856.234 212.805 856.01 212.176C855.786 211.536 855.674 210.789 855.674 209.936V205.024C855.674 204.171 855.786 203.44 856.01 202.832C856.245 202.213 856.618 201.744 857.13 201.424C857.653 201.093 858.352 200.928 859.226 200.928C860.101 200.928 860.794 201.093 861.306 201.424C861.818 201.755 862.186 202.224 862.41 202.832C862.645 203.44 862.762 204.171 862.762 205.024V209.952C862.762 210.795 862.645 211.531 862.41 212.16C862.186 212.789 861.818 213.28 861.306 213.632C860.794 213.973 860.101 214.144 859.226 214.144ZM859.226 212.72C859.706 212.72 860.069 212.624 860.314 212.432C860.56 212.229 860.725 211.952 860.81 211.6C860.896 211.237 860.938 210.816 860.938 210.336V204.656C860.938 204.176 860.896 203.765 860.81 203.424C860.725 203.072 860.56 202.805 860.314 202.624C860.069 202.432 859.706 202.336 859.226 202.336C858.746 202.336 858.378 202.432 858.122 202.624C857.877 202.805 857.712 203.072 857.626 203.424C857.541 203.765 857.498 204.176 857.498 204.656V210.336C857.498 210.816 857.541 211.237 857.626 211.6C857.712 211.952 857.877 212.229 858.122 212.432C858.378 212.624 858.746 212.72 859.226 212.72ZM867.883 214.144C866.945 214.144 866.225 213.957 865.723 213.584C865.222 213.211 864.881 212.688 864.699 212.016C864.518 211.333 864.427 210.539 864.427 209.632V201.04H866.155V209.712C866.155 210.267 866.193 210.773 866.267 211.232C866.342 211.691 866.502 212.053 866.747 212.32C867.003 212.587 867.382 212.72 867.883 212.72C868.395 212.72 868.774 212.587 869.019 212.32C869.265 212.053 869.425 211.691 869.499 211.232C869.574 210.773 869.611 210.267 869.611 209.712V201.04H871.323V209.632C871.323 210.539 871.233 211.333 871.051 212.016C870.87 212.688 870.529 213.211 870.027 213.584C869.537 213.957 868.822 214.144 867.883 214.144ZM874.651 214V202.384H872.459V201.04H878.587V202.384H876.459V214H874.651ZM879.836 214V201.04H884.86V202.384H881.644V206.672H884.252V207.952H881.644V212.704H884.892V214H879.836Z" fill="white"/>
<path d="M860.581 242.18C859.648 242.18 858.888 241.947 858.301 241.48C857.715 241 857.281 240.36 857.001 239.56C856.735 238.747 856.601 237.847 856.601 236.86V231.4C856.601 230.347 856.721 229.387 856.961 228.52C857.201 227.653 857.608 226.96 858.181 226.44C858.768 225.92 859.568 225.66 860.581 225.66C861.421 225.66 862.128 225.813 862.701 226.12C863.288 226.427 863.735 226.873 864.041 227.46C864.361 228.047 864.528 228.76 864.541 229.6C864.541 229.627 864.541 229.667 864.541 229.72C864.555 229.76 864.561 229.8 864.561 229.84H862.401C862.401 229.053 862.275 228.453 862.021 228.04C861.768 227.627 861.288 227.42 860.581 227.42C860.195 227.42 859.861 227.547 859.581 227.8C859.301 228.04 859.088 228.413 858.941 228.92C858.808 229.427 858.741 230.08 858.741 230.88V233.34C858.955 233.007 859.255 232.74 859.641 232.54C860.041 232.327 860.528 232.22 861.101 232.22C861.995 232.22 862.695 232.413 863.201 232.8C863.708 233.187 864.068 233.733 864.281 234.44C864.495 235.133 864.601 235.953 864.601 236.9C864.601 237.873 864.468 238.76 864.201 239.56C863.935 240.36 863.508 241 862.921 241.48C862.335 241.947 861.555 242.18 860.581 242.18ZM860.581 240.4C861.061 240.4 861.435 240.267 861.701 240C861.968 239.72 862.155 239.353 862.261 238.9C862.381 238.447 862.441 237.953 862.441 237.42C862.441 236.78 862.408 236.187 862.341 235.64C862.288 235.093 862.135 234.66 861.881 234.34C861.628 234.007 861.195 233.84 860.581 233.84C860.288 233.84 860.021 233.893 859.781 234C859.541 234.107 859.335 234.247 859.161 234.42C858.988 234.58 858.848 234.753 858.741 234.94V237.36C858.741 237.907 858.795 238.413 858.901 238.88C859.021 239.347 859.215 239.72 859.481 240C859.748 240.267 860.115 240.4 860.581 240.4ZM870.64 242.18C869.707 242.18 868.947 241.947 868.36 241.48C867.773 241 867.34 240.36 867.06 239.56C866.793 238.747 866.66 237.847 866.66 236.86V231.4C866.66 230.347 866.78 229.387 867.02 228.52C867.26 227.653 867.667 226.96 868.24 226.44C868.827 225.92 869.627 225.66 870.64 225.66C871.48 225.66 872.187 225.813 872.76 226.12C873.347 226.427 873.793 226.873 874.1 227.46C874.42 228.047 874.587 228.76 874.6 229.6C874.6 229.627 874.6 229.667 874.6 229.72C874.613 229.76 874.62 229.8 874.62 229.84H872.46C872.46 229.053 872.333 228.453 872.08 228.04C871.827 227.627 871.347 227.42 870.64 227.42C870.253 227.42 869.92 227.547 869.64 227.8C869.36 228.04 869.147 228.413 869 228.92C868.867 229.427 868.8 230.08 868.8 230.88V233.34C869.013 233.007 869.313 232.74 869.7 232.54C870.1 232.327 870.587 232.22 871.16 232.22C872.053 232.22 872.753 232.413 873.26 232.8C873.767 233.187 874.127 233.733 874.34 234.44C874.553 235.133 874.66 235.953 874.66 236.9C874.66 237.873 874.527 238.76 874.26 239.56C873.993 240.36 873.567 241 872.98 241.48C872.393 241.947 871.613 242.18 870.64 242.18ZM870.64 240.4C871.12 240.4 871.493 240.267 871.76 240C872.027 239.72 872.213 239.353 872.32 238.9C872.44 238.447 872.5 237.953 872.5 237.42C872.5 236.78 872.467 236.187 872.4 235.64C872.347 235.093 872.193 234.66 871.94 234.34C871.687 234.007 871.253 233.84 870.64 233.84C870.347 233.84 870.08 233.893 869.84 234C869.6 234.107 869.393 234.247 869.22 234.42C869.047 234.58 868.907 234.753 868.8 234.94V237.36C868.8 237.907 868.853 238.413 868.96 238.88C869.08 239.347 869.273 239.72 869.54 240C869.807 240.267 870.173 240.4 870.64 240.4Z" fill="white"/>
<path d="M866 251.5L862 250V310H869V250L866 251.5Z" fill="#D9D9D9" stroke="white"/>
<g filter="url(#filter1_i_184_26)">
<path d="M1178.89 278.147L1170.07 278.223C1168.26 271.028 1164.63 255.333 1164.58 250.106C1164.57 248 1164.38 243.459 1164.12 238.169L1164.28 247.405C1157.55 244.834 1142.89 236.097 1141.52 230.701C1139.8 223.957 1138.42 209.999 1149.07 209.908C1155.96 209.849 1158.99 219.812 1158.86 226.047C1160.22 230.091 1163.18 238.177 1164.12 238.169C1163.75 230.329 1163.23 220.845 1162.91 215.197C1162.77 210.317 1164.49 200.178 1172.42 198.669C1180.35 197.159 1183.73 208.636 1184.42 214.563L1186.05 210.944C1186.39 208.238 1187.13 202.644 1187.35 201.921C1187.62 201.017 1189.5 195.594 1193.09 195.338C1196.12 195.312 1197.5 194.85 1200.35 205.415C1200.56 209.393 1197.26 218.824 1184.5 223.8L1184.42 214.563L1184.06 236.646L1183.12 256.481C1182.08 263.7 1179.78 278.14 1178.89 278.147Z" fill="#29962D"/>
<path d="M1184.42 214.563C1183.73 208.636 1180.35 197.159 1172.42 198.669C1164.49 200.178 1162.77 210.317 1162.91 215.197C1163.23 220.845 1163.75 230.329 1164.12 238.169M1184.42 214.563L1184.06 236.646L1183.12 256.481C1182.08 263.7 1179.78 278.14 1178.89 278.147L1170.07 278.223C1168.26 271.028 1164.63 255.333 1164.58 250.106C1164.57 248 1164.38 243.459 1164.12 238.169M1184.42 214.563L1186.05 210.944C1186.39 208.238 1187.13 202.644 1187.35 201.921C1187.62 201.017 1189.5 195.594 1193.09 195.338C1196.12 195.312 1197.5 194.85 1200.35 205.415C1200.56 209.393 1197.26 218.824 1184.5 223.8L1184.42 214.563ZM1164.12 238.169C1163.18 238.177 1160.22 230.091 1158.86 226.047C1158.99 219.812 1155.96 209.849 1149.07 209.908C1138.42 209.999 1139.8 223.957 1141.52 230.701C1142.89 236.097 1157.55 244.834 1164.28 247.405L1164.12 238.169Z" stroke="black" stroke-width="2"/>
<g filter="url(#filter2_i_184_26)">
<path d="M1184.04 202.85L1181.04 206.706M1175.8 206.526L1173.9 210.147M1169.5 212.437L1171.19 216.253M1179.16 212.805L1176.45 218.687M1171.79 221.656L1173.21 226.825M1182.29 223.594L1179.3 228.801M1162.46 228.269L1168.84 232.045M1173.55 233.807L1173.32 239.667M1182.36 231.929L1179.64 236.684M1166.13 237.926L1168.92 241.507M1179.42 242.544L1176.42 247.526M1186.05 243.839L1180.59 250.42M1188.37 256.662L1180.67 259.882M1177.86 254.048L1176.24 258.793M1167.88 248.726L1171.77 251.396M1164.35 254.839L1169.62 258.174M1165.24 262.492L1170.78 265.599M1180.44 265.517L1177.7 268.244M1184.89 269.985L1178.02 273.198M1166.42 271.269L1173.06 273.691M1191.96 193.094L1193.94 198.485M1199.17 196.638L1196.71 200.264M1186.22 199.677L1190.12 203.7M1192.08 206.612L1195.64 203.652M1185.73 206.891L1186.88 211.838M1189.34 209.564L1191.04 214.281M1195.7 211.312L1202.32 210.129M1198.14 205.208L1203.08 203.138M1189.41 217.449L1194.4 220.11" stroke="black"/>
</g>
<path d="M1145.91 227.96L1152.27 230.384M1160.79 225.805L1158.07 231.01M1142.39 236.326L1148.73 235.596M1155.64 237.34L1156.23 240.939M1151.06 217.326L1150.82 221.834M1138.11 219.239L1143.93 223.02M1141.35 211.326L1144.42 215.355M1153.2 209.647L1151.85 213.489M1159.88 216.35L1156.33 221.111M1162.35 215.202L1166.27 221.027M1161.73 206.42L1166.18 210.663" stroke="black"/>
</g>
<g filter="url(#filter3_i_184_26)">
<path d="M198.377 244.658L208.838 244.737C210.982 237.162 215.282 220.635 215.335 215.131C215.356 212.913 215.579 208.132 215.88 202.561L215.689 212.287C223.671 209.58 241.044 200.38 242.668 194.698C244.698 187.596 246.344 172.9 233.724 172.804C225.551 172.742 221.963 183.233 222.118 189.797C220.507 194.056 217.004 202.57 215.88 202.561C216.325 194.307 216.941 184.32 217.323 178.373C217.482 173.234 215.448 162.559 206.047 160.969C196.646 159.379 192.65 171.464 191.828 177.705L189.903 173.895C189.494 171.045 188.613 165.154 188.359 164.393C188.041 163.442 185.808 157.731 181.56 157.462C177.964 157.434 176.334 156.948 172.957 168.072C172.699 172.262 176.614 182.192 191.734 187.432L191.828 177.705L192.258 200.958L193.365 221.844C194.6 229.445 197.331 244.65 198.377 244.658Z" fill="#29962D"/>
</g>
<path d="M191.828 177.705C192.65 171.464 196.646 159.379 206.047 160.969C215.448 162.559 217.482 173.234 217.323 178.373C216.941 184.32 216.325 194.307 215.88 202.561M191.828 177.705L192.258 200.958L193.365 221.844C194.6 229.445 197.331 244.65 198.377 244.658L208.838 244.737C210.982 237.162 215.282 220.635 215.335 215.131C215.356 212.913 215.579 208.132 215.88 202.561M191.828 177.705L189.903 173.895C189.494 171.045 188.613 165.154 188.359 164.393C188.041 163.442 185.808 157.731 181.56 157.462C177.964 157.434 176.334 156.948 172.957 168.072C172.699 172.262 176.614 182.192 191.734 187.432L191.828 177.705ZM215.88 202.561C217.004 202.57 220.507 194.056 222.118 189.797C221.963 183.233 225.551 172.742 233.724 172.804C246.344 172.9 244.698 187.596 242.668 194.698C241.044 200.38 223.671 209.58 215.689 212.287L215.88 202.561Z" stroke="black" stroke-width="2"/>
<g filter="url(#filter4_i_184_26)">
<path d="M192.274 165.372L195.831 169.432M202.045 169.242L204.297 173.055M209.505 175.467L207.505 179.485M198.058 175.854L201.268 182.047M206.796 185.173L205.109 190.617M194.353 187.214L197.896 192.697M217.846 192.137L210.288 196.113M204.712 197.969L204.979 204.139M194.268 195.991L197.49 200.998M213.498 202.306L210.192 206.076M197.757 207.168L201.303 212.415M189.897 208.532L196.37 215.461M187.152 222.034L196.274 225.425M199.602 219.282L201.516 224.278M211.427 213.678L206.822 216.49M215.615 220.115L209.369 223.626M214.557 228.173L207.986 231.445M196.544 231.358L199.786 234.229M191.267 236.063L199.409 239.446M213.16 237.415L205.289 239.965M182.891 155.099L180.548 160.775M174.355 158.83L177.26 162.648M189.691 162.031L185.072 166.266M182.754 169.333L178.534 166.216M190.271 169.627L188.913 174.836M185.994 172.441L183.985 177.408M178.456 174.282L170.622 173.036M175.576 167.855L169.712 165.675M185.914 180.744L180.002 183.546" stroke="black"/>
</g>
<path d="M237.465 191.812L229.921 194.364M219.832 189.543L223.049 195.024M241.631 200.621L234.119 199.853M225.927 201.688L225.237 205.479M231.361 180.615L231.642 185.362M246.708 182.629L239.804 186.61M242.865 174.297L239.228 178.539M228.823 172.529L230.419 176.575M220.908 179.587L225.111 184.601M217.977 178.378L213.341 184.511M218.72 169.131L213.446 173.599" stroke="black"/>
<path d="M718.096 310.075L723.472 310.116C724.574 306.223 726.784 297.73 726.811 294.902C726.822 293.762 726.937 291.305 727.091 288.442L726.993 293.44C731.095 292.049 740.023 287.321 740.858 284.401C741.901 280.751 742.747 273.199 736.261 273.15C732.061 273.118 730.217 278.509 730.297 281.883C729.469 284.071 727.669 288.446 727.091 288.442C727.32 284.2 727.636 279.068 727.833 276.012C727.914 273.371 726.869 267.885 722.038 267.068C717.207 266.251 715.153 272.461 714.731 275.668L713.741 273.71C713.531 272.246 713.079 269.219 712.948 268.827C712.785 268.338 711.637 265.404 709.454 265.265C707.606 265.251 706.768 265.001 705.033 270.718C704.9 272.871 706.912 277.974 714.682 280.667L714.731 275.668L714.952 287.618L715.521 298.352C716.155 302.258 717.559 310.071 718.096 310.075Z" fill="#29962D"/>
<path d="M714.731 275.668C715.153 272.461 717.207 266.251 722.038 267.068C726.869 267.885 727.914 273.371 727.833 276.012C727.636 279.068 727.32 284.2 727.091 288.442M714.731 275.668L714.952 287.618L715.521 298.352C716.155 302.258 717.559 310.071 718.096 310.075L723.472 310.116C724.574 306.223 726.784 297.73 726.811 294.902C726.822 293.762 726.937 291.305 727.091 288.442M714.731 275.668L713.741 273.71C713.531 272.246 713.079 269.219 712.948 268.827C712.785 268.338 711.637 265.404 709.454 265.265C707.606 265.251 706.768 265.001 705.033 270.718C704.9 272.871 706.912 277.974 714.682 280.667L714.731 275.668ZM727.091 288.442C727.669 288.446 729.469 284.071 730.297 281.883C730.217 278.509 732.061 273.118 736.261 273.15C742.747 273.199 741.901 280.751 740.858 284.401C740.023 287.321 731.095 292.049 726.993 293.44L727.091 288.442Z" stroke="black" stroke-width="2"/>
<g filter="url(#filter5_i_184_26)">
<path d="M714.961 269.33L716.789 271.417M719.982 271.319L721.139 273.278M723.816 274.518L722.788 276.583M717.933 274.717L719.583 277.9M722.424 279.506L721.557 282.304M716.029 280.555L717.85 283.373M728.102 283.085L724.218 285.128M721.352 286.082L721.49 289.253M715.985 285.066L717.641 287.638M725.867 288.311L724.169 290.248M717.778 290.809L719.601 293.505M713.739 291.51L717.065 295.071M712.328 298.449L717.016 300.191M718.727 297.035L719.71 299.602M724.803 294.155L722.437 295.6M726.956 297.463L723.746 299.267M726.412 301.604L723.035 303.285M717.155 303.241L718.821 304.716M714.443 305.658L718.627 307.397M725.694 306.353L721.649 307.664M710.139 264.051L708.935 266.968M705.752 265.968L707.245 267.93M713.633 267.613L711.26 269.79M710.068 271.366L707.9 269.764M713.932 271.517L713.234 274.194M711.733 272.963L710.701 275.516M707.86 273.909L703.833 273.269M706.379 270.606L703.366 269.486M711.692 277.23L708.654 278.67" stroke="black"/>
</g>
<path d="M738.184 282.918L734.307 284.229M729.123 281.752L730.776 284.568M740.325 287.445L736.464 287.05M732.255 287.993L731.9 289.941M735.047 277.164L735.192 279.603M742.934 278.199L739.386 280.245M740.959 273.917L739.09 276.097M733.743 273.008L734.563 275.087M729.676 276.635L731.835 279.212M728.17 276.014L725.787 279.166M728.551 271.262L725.841 273.558" stroke="black"/>
<defs>
<filter id="filter0_b_184_26" x="352.473" y="-3.26587" width="402.636" height="380.699" filterUnits="userSpaceOnUse" color-interpolation-filters="sRGB">
<feFlood flood-opacity="0" result="BackgroundImageFix"/>
<feGaussianBlur in="BackgroundImageFix" stdDeviation="2"/>
<feComposite in2="SourceAlpha" operator="in" result="effect1_backgroundBlur_184_26"/>
<feBlend mode="normal" in="SourceGraphic" in2="effect1_backgroundBlur_184_26" result="shape"/>
</filter>
<filter id="filter1_i_184_26" x="1137.84" y="192.922" width="69.4414" height="90.3071" filterUnits="userSpaceOnUse" color-interpolation-filters="sRGB">
<feFlood flood-opacity="0" result="BackgroundImageFix"/>
<feBlend mode="normal" in="SourceGraphic" in2="BackgroundImageFix" result="shape"/>
<feColorMatrix in="SourceAlpha" type="matrix" values="0 0 0 0 0 0 0 0 0 0 0 0 0 0 0 0 0 0 127 0" result="hardAlpha"/>
<feOffset dx="8" dy="4"/>
<feGaussianBlur stdDeviation="2"/>
<feComposite in2="hardAlpha" operator="arithmetic" k2="-1" k3="1"/>
<feColorMatrix type="matrix" values="0 0 0 0 0 0 0 0 0 0 0 0 0 0 0 0 0 0 0.25 0"/>
<feBlend mode="normal" in2="shape" result="effect1_innerShadow_184_26"/>
</filter>
<filter id="filter2_i_184_26" x="1160.21" y="192.922" width="43.0674" height="85.2385" filterUnits="userSpaceOnUse" color-interpolation-filters="sRGB">
<feFlood flood-opacity="0" result="BackgroundImageFix"/>
<feBlend mode="normal" in="SourceGraphic" in2="BackgroundImageFix" result="shape"/>
<feColorMatrix in="SourceAlpha" type="matrix" values="0 0 0 0 0 0 0 0 0 0 0 0 0 0 0 0 0 0 127 0" result="hardAlpha"/>
<feOffset dx="-2" dy="4"/>
<feGaussianBlur stdDeviation="2"/>
<feComposite in2="hardAlpha" operator="arithmetic" k2="-1" k3="1"/>
<feColorMatrix type="matrix" values="0 0 0 0 0 0 0 0 0 0 0 0 0 0 0 0 0 0 0.25 0"/>
<feBlend mode="normal" in2="shape" result="effect1_innerShadow_184_26"/>
</filter>
<filter id="filter3_i_184_26" x="171.945" y="156.449" width="77.1187" height="93.2939" filterUnits="userSpaceOnUse" color-interpolation-filters="sRGB">
<feFlood flood-opacity="0" result="BackgroundImageFix"/>
<feBlend mode="normal" in="SourceGraphic" in2="BackgroundImageFix" result="shape"/>
<feColorMatrix in="SourceAlpha" type="matrix" values="0 0 0 0 0 0 0 0 0 0 0 0 0 0 0 0 0 0 127 0" result="hardAlpha"/>
<feOffset dx="6" dy="4"/>
<feGaussianBlur stdDeviation="2"/>
<feComposite in2="hardAlpha" operator="arithmetic" k2="-1" k3="1"/>
<feColorMatrix type="matrix" values="0 0 0 0 0 0 0 0 0 0 0 0 0 0 0 0 0 0 0.25 0"/>
<feBlend mode="normal" in2="shape" result="effect1_innerShadow_184_26"/>
</filter>
<filter id="filter4_i_184_26" x="167.537" y="154.909" width="50.541" height="89.5315" filterUnits="userSpaceOnUse" color-interpolation-filters="sRGB">
<feFlood flood-opacity="0" result="BackgroundImageFix"/>
<feBlend mode="normal" in="SourceGraphic" in2="BackgroundImageFix" result="shape"/>
<feColorMatrix in="SourceAlpha" type="matrix" values="0 0 0 0 0 0 0 0 0 0 0 0 0 0 0 0 0 0 127 0" result="hardAlpha"/>
<feOffset dx="-2" dy="4"/>
<feGaussianBlur stdDeviation="2"/>
<feComposite in2="hardAlpha" operator="arithmetic" k2="-1" k3="1"/>
<feColorMatrix type="matrix" values="0 0 0 0 0 0 0 0 0 0 0 0 0 0 0 0 0 0 0.25 0"/>
<feBlend mode="normal" in2="shape" result="effect1_innerShadow_184_26"/>
</filter>
<filter id="filter5_i_184_26" x="701.191" y="263.861" width="27.1431" height="48.2783" filterUnits="userSpaceOnUse" color-interpolation-filters="sRGB">
<feFlood flood-opacity="0" result="BackgroundImageFix"/>
<feBlend mode="normal" in="SourceGraphic" in2="BackgroundImageFix" result="shape"/>
<feColorMatrix in="SourceAlpha" type="matrix" values="0 0 0 0 0 0 0 0 0 0 0 0 0 0 0 0 0 0 127 0" result="hardAlpha"/>
<feOffset dx="-2" dy="4"/>
<feGaussianBlur stdDeviation="2"/>
<feComposite in2="hardAlpha" operator="arithmetic" k2="-1" k3="1"/>
<feColorMatrix type="matrix" values="0 0 0 0 0 0 0 0 0 0 0 0 0 0 0 0 0 0 0.25 0"/>
<feBlend mode="normal" in2="shape" result="effect1_innerShadow_184_26"/>
</filter>
</defs>
</svg>
